<svg xmlns="http://www.w3.org/2000/svg" viewBox="0 0 500 500"><g id="freepik--background-complete--inject-52"><rect x="416.78" y="398.49" width="33.12" height="0.25" style="fill:#ebebeb"></rect><rect x="322.53" y="401.21" width="8.69" height="0.25" style="fill:#ebebeb"></rect><rect x="396.59" y="389.21" width="19.19" height="0.25" style="fill:#ebebeb"></rect><rect x="52.46" y="390.89" width="43.19" height="0.25" style="fill:#ebebeb"></rect><rect x="104.56" y="390.89" width="6.33" height="0.25" style="fill:#ebebeb"></rect><rect x="131.47" y="395.11" width="93.68" height="0.25" style="fill:#ebebeb"></rect><path d="M237,337.8H43.92a5.71,5.71,0,0,1-5.71-5.71V60.66A5.71,5.71,0,0,1,43.92,55H237a5.71,5.71,0,0,1,5.71,5.71V332.09A5.71,5.71,0,0,1,237,337.8ZM43.92,55.2a5.47,5.47,0,0,0-5.46,5.46V332.09a5.47,5.47,0,0,0,5.46,5.46H237a5.47,5.47,0,0,0,5.46-5.46V60.66A5.47,5.47,0,0,0,237,55.2Z" style="fill:#ebebeb"></path><path d="M453.31,337.8H260.21a5.72,5.72,0,0,1-5.71-5.71V60.66A5.72,5.72,0,0,1,260.21,55h193.1A5.71,5.71,0,0,1,459,60.66V332.09A5.71,5.71,0,0,1,453.31,337.8ZM260.21,55.2a5.47,5.47,0,0,0-5.46,5.46V332.09a5.47,5.47,0,0,0,5.46,5.46h193.1a5.47,5.47,0,0,0,5.46-5.46V60.66a5.47,5.47,0,0,0-5.46-5.46Z" style="fill:#ebebeb"></path><rect y="382.4" width="500" height="0.25" style="fill:#ebebeb"></rect><rect x="329.32" y="244.04" width="87.63" height="131.83" style="fill:#f5f5f5"></rect><rect x="416.95" y="244.04" width="18.9" height="131.83" style="fill:#ebebeb"></rect><rect x="336.26" y="253.82" width="74.26" height="32.02" style="fill:#fafafa"></rect><path d="M367.94,253.82l.37,4.27a2.74,2.74,0,0,0,2.72,2.48h4.72a2.74,2.74,0,0,0,2.72-2.48l.37-4.27Z" style="fill:#ebebeb"></path><rect x="336.26" y="289.33" width="74.26" height="32.02" style="fill:#fafafa"></rect><path d="M367.94,289.33l.37,4.27a2.74,2.74,0,0,0,2.72,2.49h4.72a2.74,2.74,0,0,0,2.72-2.49l.37-4.27Z" style="fill:#ebebeb"></path><rect x="336.26" y="324.84" width="74.26" height="32.02" style="fill:#fafafa"></rect><path d="M367.94,324.84l.37,4.27A2.74,2.74,0,0,0,371,331.6h4.72a2.74,2.74,0,0,0,2.72-2.49l.37-4.27Z" style="fill:#ebebeb"></path><polygon points="410.52 382.45 337.3 382.45 336.26 375.86 410.52 375.86 410.52 382.45" style="fill:#e6e6e6"></polygon><polygon points="428.21 382.45 410.52 382.45 410.52 375.86 429.25 375.86 428.21 382.45" style="fill:#e0e0e0"></polygon><polygon points="372.62 244.18 403.21 244.18 399.82 205.38 369.23 205.38 372.62 244.18" style="fill:#fafafa"></polygon><polygon points="372.62 244.18 371.16 244.18 367.76 205.38 369.23 205.38 372.62 244.18" style="fill:#ebebeb"></polygon><polygon points="375.39 240.22 399.75 240.22 397.04 209.34 372.69 209.34 375.39 240.22" style="fill:#f0f0f0"></polygon><polygon points="377.18 237.68 397.52 237.68 395.26 211.88 374.92 211.88 377.18 237.68" style="fill:#e6e6e6"></polygon><polygon points="396.67 244.18 394.83 223.13 421.52 223.13 423.37 244.18 396.67 244.18" style="fill:#f0f0f0"></polygon><polygon points="396.67 244.18 394.83 223.13 393.39 223.13 395.24 244.18 396.67 244.18" style="fill:#e0e0e0"></polygon><polygon points="399.21 242.03 397.74 225.28 418.99 225.28 420.46 242.03 399.21 242.03" style="fill:#ebebeb"></polygon><polygon points="400.84 240.65 399.61 226.66 417.36 226.66 418.59 240.65 400.84 240.65" style="fill:#f5f5f5"></polygon><rect x="63.84" y="313.8" width="91.13" height="31.46" transform="translate(218.81 659.05) rotate(180)" style="fill:#ebebeb"></rect><rect x="63.84" y="345.25" width="91.13" height="31.46" transform="translate(218.81 721.96) rotate(180)" style="fill:#ebebeb"></rect><rect x="158.15" y="313.8" width="91.13" height="31.46" transform="translate(407.44 659.05) rotate(180)" style="fill:#ebebeb"></rect><rect x="158.15" y="345.25" width="91.13" height="31.46" transform="translate(407.44 721.96) rotate(180)" style="fill:#ebebeb"></rect><polygon points="214.65 345.25 203.32 313.8 220.77 313.8 232.1 345.25 214.65 345.25" style="fill:#f0f0f0"></polygon><polygon points="194.87 313.8 198.7 313.8 210.04 345.25 206.21 345.25 194.87 313.8" style="fill:#f0f0f0"></polygon><polygon points="225.99 376.71 214.65 345.25 232.1 345.25 243.44 376.71 225.99 376.71" style="fill:#f0f0f0"></polygon><polygon points="206.21 345.25 210.04 345.25 221.38 376.71 217.55 376.71 206.21 345.25" style="fill:#f0f0f0"></polygon><polygon points="84.31 345.25 72.98 313.8 90.43 313.8 101.77 345.25 84.31 345.25" style="fill:#f0f0f0"></polygon><polygon points="64.53 313.8 68.36 313.8 79.7 345.25 75.87 345.25 64.53 313.8" style="fill:#f0f0f0"></polygon><polygon points="95.65 376.71 84.31 345.25 101.77 345.25 113.1 376.71 95.65 376.71" style="fill:#f0f0f0"></polygon><polygon points="75.87 345.25 79.7 345.25 91.04 376.71 87.21 376.71 75.87 345.25" style="fill:#f0f0f0"></polygon><rect x="202.13" y="271.48" width="3.18" height="91.13" transform="translate(520.76 113.32) rotate(90)" style="fill:#e0e0e0"></rect><rect x="202.13" y="302.69" width="3.18" height="91.13" transform="translate(551.97 144.53) rotate(90)" style="fill:#e0e0e0"></rect><path d="M201.39,333.55a1.37,1.37,0,1,1,0-2.73h4.66a1.37,1.37,0,1,1,0,2.73Z" style="fill:#e6e6e6"></path><path d="M201.39,333.07a1.37,1.37,0,1,1,0-2.73h4.66a1.37,1.37,0,1,1,0,2.73Z" style="fill:#e0e0e0"></path><path d="M201.39,362.59a1.37,1.37,0,1,1,0-2.73h4.66a1.37,1.37,0,1,1,0,2.73Z" style="fill:#e6e6e6"></path><path d="M201.39,362.11a1.37,1.37,0,1,1,0-2.74h4.66a1.37,1.37,0,0,1,0,2.74Z" style="fill:#e0e0e0"></path><path d="M156.56,312.39v65.69h94.32V312.39Zm3.19,34.53h87.94v28H159.75Zm0-31.17h87.94v28H159.75Z" style="fill:#f5f5f5"></path><rect x="107.81" y="271.48" width="3.18" height="91.13" transform="translate(426.45 207.64) rotate(90)" style="fill:#e0e0e0"></rect><rect x="107.81" y="302.69" width="3.18" height="91.13" transform="translate(457.66 238.85) rotate(90)" style="fill:#e0e0e0"></rect><path d="M107.07,333.55a1.37,1.37,0,0,1,0-2.73h4.67a1.37,1.37,0,0,1,0,2.73Z" style="fill:#e6e6e6"></path><path d="M107.07,333.07a1.37,1.37,0,0,1,0-2.73h4.67a1.37,1.37,0,0,1,0,2.73Z" style="fill:#e0e0e0"></path><path d="M107.07,362.59a1.37,1.37,0,0,1,0-2.73h4.67a1.37,1.37,0,0,1,0,2.73Z" style="fill:#e6e6e6"></path><path d="M107.07,362.11a1.37,1.37,0,0,1,0-2.74h4.67a1.37,1.37,0,0,1,0,2.74Z" style="fill:#e0e0e0"></path><path d="M62.25,312.39v65.69h94.31V312.39Zm3.18,34.53h87.95v28H65.43Zm0-31.17h87.95v28H65.43Z" style="fill:#f5f5f5"></path><polygon points="74.83 382.45 66.47 382.45 65.43 378.08 75.87 378.08 74.83 382.45" style="fill:#e0e0e0"></polygon><polygon points="246.25 382.45 237.9 382.45 236.85 378.08 247.29 378.08 246.25 382.45" style="fill:#e0e0e0"></polygon><path d="M91.78,282.9c0-2.54,3-4.7,7.14-5.44l-4.1-4.89h24.34l-4.1,4.89c4.14.74,7.14,2.9,7.14,5.44,0,2.81-3.63,23.34-8.43,27.86l.65.77a.64.64,0,0,1-.48,1H100.05a.64.64,0,0,1-.49-1l.65-.77C95.42,306.24,91.78,285.71,91.78,282.9Z" style="fill:#f0f0f0"></path><path d="M137.78,300.78H104.37c0,3.36,3.08,6.31,7.72,8l-1,3.79H131l-.95-3.79C134.7,307.09,137.78,304.14,137.78,300.78Z" style="fill:#e6e6e6"></path></g><g id="freepik--Shadow--inject-52"><ellipse id="freepik--path--inject-52" cx="245.18" cy="412.39" rx="193.89" ry="11.32" style="fill:#f5f5f5"></ellipse></g><g id="freepik--Screens--inject-52"><rect x="96.96" y="75.26" width="243.32" height="173.28" rx="7.19" style="fill:#407BFF"></rect><rect x="96.96" y="75.26" width="243.32" height="173.28" rx="7.19" style="fill:#fff;opacity:0.5"></rect><rect x="102.58" y="99.97" width="232.09" height="142.96" rx="2.46" style="fill:#fff;opacity:0.5"></rect><rect x="292.74" y="82" width="10.48" height="10.48" rx="2.95" style="fill:#fff;opacity:0.30000000000000004"></rect><rect x="308.46" y="82" width="10.48" height="10.48" rx="2.95" style="fill:#fff;opacity:0.5"></rect><rect x="324.19" y="82" width="10.48" height="10.48" rx="2.95" style="fill:#fff;opacity:0.8"></rect><rect x="102.58" y="79.94" width="14.6" height="14.6" rx="3.67" style="fill:#407BFF"></rect><rect x="151.62" y="108.95" width="169.95" height="17.22" rx="4.02" style="fill:#fff;opacity:0.8"></rect><rect x="151.62" y="131.79" width="169.95" height="17.22" rx="4.02" style="fill:#fff;opacity:0.8"></rect><rect x="151.62" y="158.35" width="169.95" height="74.96" rx="4.02" style="fill:#fff;opacity:0.8"></rect><rect x="151.62" y="158.35" width="169.95" height="15.04" rx="4.51" style="fill:#407BFF"></rect><rect x="151.62" y="158.35" width="169.95" height="15.04" rx="4.51" style="fill:#fff;opacity:0.5"></rect><rect x="207.6" y="160.7" width="10.28" height="10.28" rx="1.85" style="fill:#fff;opacity:0.5"></rect><rect x="222.29" y="160.7" width="10.28" height="10.28" rx="1.85" style="fill:#fff;opacity:0.5"></rect><rect x="237.17" y="160.7" width="10.28" height="10.28" rx="1.85" style="fill:#fff;opacity:0.5"></rect><path d="M115.72,115.37h-1.51v-.89h4.11v.89h-1.51v3.83h-1.09Z" style="fill:#263238"></path><path d="M119.8,119a2.43,2.43,0,0,1-.92-3.37,2.43,2.43,0,0,1,.92-.88,3,3,0,0,1,2.64,0,2.46,2.46,0,0,1,.93.88,2.53,2.53,0,0,1,0,2.5,2.36,2.36,0,0,1-.93.87,2.88,2.88,0,0,1-2.64,0Zm2.08-.81a1.35,1.35,0,0,0,.53-.53,1.55,1.55,0,0,0,.19-.78,1.53,1.53,0,0,0-.19-.78,1.45,1.45,0,0,0-.53-.54,1.51,1.51,0,0,0-.76-.19,1.47,1.47,0,0,0-.75.19,1.38,1.38,0,0,0-.53.54,1.53,1.53,0,0,0-.19.78,1.55,1.55,0,0,0,.19.78,1.29,1.29,0,0,0,.53.53,1.48,1.48,0,0,0,.75.2A1.51,1.51,0,0,0,121.88,118.15Z" style="fill:#263238"></path><path d="M115.21,142a2.35,2.35,0,0,1-.84-.4l.37-.82a2.7,2.7,0,0,0,.72.36,2.72,2.72,0,0,0,.84.13,1.38,1.38,0,0,0,.69-.13.43.43,0,0,0,.22-.37.34.34,0,0,0-.13-.28,1.2,1.2,0,0,0-.34-.18l-.55-.15a8,8,0,0,1-.89-.25,1.61,1.61,0,0,1-.59-.41,1.14,1.14,0,0,1-.24-.76,1.29,1.29,0,0,1,.22-.74,1.45,1.45,0,0,1,.67-.53,2.72,2.72,0,0,1,1.09-.2,3.74,3.74,0,0,1,.89.11,2.68,2.68,0,0,1,.75.31l-.33.83a2.64,2.64,0,0,0-1.31-.37,1.22,1.22,0,0,0-.68.15.45.45,0,0,0-.22.39.39.39,0,0,0,.25.36,4.23,4.23,0,0,0,.78.23,7.55,7.55,0,0,1,.88.26,1.48,1.48,0,0,1,.59.4,1.09,1.09,0,0,1,.24.75,1.31,1.31,0,0,1-.22.74,1.54,1.54,0,0,1-.68.53,2.78,2.78,0,0,1-1.1.19A3.91,3.91,0,0,1,115.21,142Z" style="fill:#263238"></path><path d="M119.56,141.55A2.16,2.16,0,0,1,119,140v-2.64h1.09v2.6c0,.85.35,1.27,1,1.27a1,1,0,0,0,.79-.31,1.41,1.41,0,0,0,.27-1v-2.6h1.07V140a1.95,1.95,0,0,1-2.13,2.16A2.16,2.16,0,0,1,119.56,141.55Z" style="fill:#263238"></path><path d="M128.45,140a1.21,1.21,0,0,1,.23.74,1.1,1.1,0,0,1-.48,1,2.51,2.51,0,0,1-1.41.33h-2.44v-4.72h2.31a2.26,2.26,0,0,1,1.32.33,1,1,0,0,1,.46.9,1.13,1.13,0,0,1-.16.61,1.27,1.27,0,0,1-.46.43A1.28,1.28,0,0,1,128.45,140Zm-3-1.86v1.11h1.08a1.1,1.1,0,0,0,.61-.14.49.49,0,0,0,.21-.42.47.47,0,0,0-.21-.42,1.11,1.11,0,0,0-.61-.13Zm1.92,2.93a.48.48,0,0,0,.22-.44c0-.39-.29-.59-.87-.59h-1.27v1.17h1.27A1.26,1.26,0,0,0,127.36,141.07Z" style="fill:#263238"></path><path d="M129.5,141.93a1.68,1.68,0,0,1-.66-.51l.61-.72a1.07,1.07,0,0,0,.87.51c.45,0,.67-.26.67-.78v-2.24h-1.66v-.88h2.74v3.06a1.78,1.78,0,0,1-.43,1.31,1.7,1.7,0,0,1-1.26.43A2.1,2.1,0,0,1,129.5,141.93Z" style="fill:#263238"></path><path d="M136.8,141.15V142h-3.65v-4.72h3.57v.88h-2.48v1h2.19v.85h-2.19v1.09Z" style="fill:#263238"></path><path d="M138.61,141.8a2.31,2.31,0,0,1-.91-.87,2.33,2.33,0,0,1-.34-1.26,2.36,2.36,0,0,1,.34-1.26,2.22,2.22,0,0,1,.91-.86,2.73,2.73,0,0,1,1.31-.32,2.65,2.65,0,0,1,1.11.22,2.14,2.14,0,0,1,.83.62l-.7.64a1.52,1.52,0,0,0-1.18-.55,1.61,1.61,0,0,0-.78.19,1.4,1.4,0,0,0-.54.54,1.7,1.7,0,0,0,0,1.56,1.4,1.4,0,0,0,.54.54,1.58,1.58,0,0,0,2-.37l.7.65a2.14,2.14,0,0,1-.83.62,2.65,2.65,0,0,1-1.11.22A2.72,2.72,0,0,1,138.61,141.8Z" style="fill:#263238"></path><path d="M143.53,138.2H142v-.89h4.11v.89h-1.51V142h-1.09Z" style="fill:#263238"></path><path d="M118.84,186.42a1.21,1.21,0,0,1,.23.74,1.09,1.09,0,0,1-.48,1,2.41,2.41,0,0,1-1.41.34h-2.44v-4.72h2.31a2.26,2.26,0,0,1,1.32.33,1,1,0,0,1,.46.9,1.13,1.13,0,0,1-.16.61,1.27,1.27,0,0,1-.46.43A1.18,1.18,0,0,1,118.84,186.42Zm-3-1.87v1.11h1.08a1.08,1.08,0,0,0,.62-.14.45.45,0,0,0,.2-.41.46.46,0,0,0-.2-.42,1.16,1.16,0,0,0-.62-.14Zm1.92,2.93a.47.47,0,0,0,.22-.43c0-.39-.29-.59-.87-.59h-1.27v1.17h1.27A1.13,1.13,0,0,0,117.75,187.48Z" style="fill:#263238"></path><path d="M120.86,188.21a2.36,2.36,0,0,1-.93-.87,2.53,2.53,0,0,1,0-2.5,2.36,2.36,0,0,1,.93-.87,2.88,2.88,0,0,1,2.64,0,2.43,2.43,0,0,1,.93.87,2.53,2.53,0,0,1,0,2.5,2.43,2.43,0,0,1-.93.87,2.88,2.88,0,0,1-2.64,0Zm2.08-.8a1.45,1.45,0,0,0,.53-.54,1.7,1.7,0,0,0,0-1.56,1.45,1.45,0,0,0-.53-.54,1.51,1.51,0,0,0-.76-.19,1.44,1.44,0,0,0-.75.19,1.38,1.38,0,0,0-.53.54,1.7,1.7,0,0,0,0,1.56,1.38,1.38,0,0,0,.53.54,1.55,1.55,0,0,0,.75.19A1.61,1.61,0,0,0,122.94,187.41Z" style="fill:#263238"></path><path d="M125.58,183.73h2.15a3.12,3.12,0,0,1,1.36.29,2.22,2.22,0,0,1,.91.83,2.3,2.3,0,0,1,.33,1.24,2.32,2.32,0,0,1-.33,1.24,2.19,2.19,0,0,1-.91.82,3,3,0,0,1-1.36.3h-2.15Zm2.09,3.82a1.6,1.6,0,0,0,1.13-.39,1.41,1.41,0,0,0,.42-1.07,1.39,1.39,0,0,0-.42-1.07,1.6,1.6,0,0,0-1.13-.39h-1v2.92Z" style="fill:#263238"></path><path d="M133.21,186.78v1.67h-1.09v-1.69l-1.83-3h1.16l1.26,2.1,1.26-2.1H135Z" style="fill:#263238"></path><path d="M161.51,166.6a1.13,1.13,0,0,1,.23.74,1.09,1.09,0,0,1-.48.95,2.48,2.48,0,0,1-1.4.33h-2.44v-4.71h2.3a2.27,2.27,0,0,1,1.33.33,1,1,0,0,1,.46.89,1.18,1.18,0,0,1-.17.62,1.1,1.1,0,0,1-.46.42A1.25,1.25,0,0,1,161.51,166.6Zm-3-1.87v1.11h1.09a1.12,1.12,0,0,0,.61-.14.49.49,0,0,0,.21-.42.46.46,0,0,0-.21-.41,1,1,0,0,0-.61-.14Zm1.93,2.93a.51.51,0,0,0,.22-.44c0-.39-.3-.59-.87-.59H158.5v1.17h1.28A1.28,1.28,0,0,0,160.43,167.66Z" style="fill:#263238"></path><path d="M163.53,168.39a2.36,2.36,0,0,1-1.25-2.13,2.43,2.43,0,0,1,.33-1.25,2.34,2.34,0,0,1,.92-.87,2.81,2.81,0,0,1,1.33-.32,2.74,2.74,0,0,1,1.32.32,2.34,2.34,0,0,1,.92.87,2.44,2.44,0,0,1,.34,1.25,2.39,2.39,0,0,1-.34,1.25,2.36,2.36,0,0,1-.92.88,2.74,2.74,0,0,1-1.32.31A2.8,2.8,0,0,1,163.53,168.39Zm2.08-.81a1.42,1.42,0,0,0,.53-.53,1.72,1.72,0,0,0,0-1.57,1.29,1.29,0,0,0-.53-.53,1.48,1.48,0,0,0-.75-.2,1.51,1.51,0,0,0-.76.2,1.35,1.35,0,0,0-.53.53,1.72,1.72,0,0,0,0,1.57,1.44,1.44,0,0,0,1.29.72A1.47,1.47,0,0,0,165.61,167.58Z" style="fill:#263238"></path><path d="M168.26,163.91h2.14a3,3,0,0,1,1.36.29,2.22,2.22,0,0,1,.92.82,2.41,2.41,0,0,1,.32,1.24,2.36,2.36,0,0,1-.32,1.24,2.24,2.24,0,0,1-.92.83,3.09,3.09,0,0,1-1.36.29h-2.14Zm2.09,3.82a1.61,1.61,0,0,0,1.13-.4,1.39,1.39,0,0,0,.42-1.07,1.37,1.37,0,0,0-.42-1.06,1.56,1.56,0,0,0-1.13-.4h-1v2.93Z" style="fill:#263238"></path><path d="M175.89,167v1.67h-1.1v-1.68l-1.82-3h1.16l1.26,2.09,1.26-2.09h1.07Z" style="fill:#263238"></path><path d="M196.37,163.91v4.71h-1.09v-3.84h-.94v-.87Z" style="fill:#263238"></path><path d="M200.72,167.73v.89h-3.56v-.71L199,166.2a2.08,2.08,0,0,0,.4-.48.94.94,0,0,0,.1-.39.53.53,0,0,0-.2-.44.87.87,0,0,0-.56-.15,1.17,1.17,0,0,0-1,.47l-.79-.51a1.84,1.84,0,0,1,.76-.64,2.45,2.45,0,0,1,1.11-.24,2.19,2.19,0,0,1,.92.18,1.37,1.37,0,0,1,.62.48,1.31,1.31,0,0,1,.21.74,1.58,1.58,0,0,1-.16.72,2.56,2.56,0,0,1-.62.77l-1.09,1Z" style="fill:#263238"></path><path d="M214.78,166.47h0a1.36,1.36,0,0,0-.45-.37,1.26,1.26,0,0,0,.29-.32,1.31,1.31,0,0,0,.18-.69,1.18,1.18,0,0,0-.52-1,2.43,2.43,0,0,0-1.4-.35h-2.45v5H213a2.62,2.62,0,0,0,1.49-.36,1.21,1.21,0,0,0,.54-1.07A1.34,1.34,0,0,0,214.78,166.47Zm-3,.26h1.13c.73,0,.73.33.73.45a.36.36,0,0,1-.15.32,1.12,1.12,0,0,1-.58.12H211.8Zm1.48-1.19a1,1,0,0,1-.54.12h-.94v-.83h.94a1.09,1.09,0,0,1,.54.11.39.39,0,0,1,0,.6Z" style="fill:#263238"></path><path d="M227.38,163.87h1.1l-1,4.71h-1.09Z" style="fill:#263238"></path><path d="M240.74,167.15a2.15,2.15,0,0,1-.56-1.6v-2.64h1.09v2.6c0,.84.35,1.27,1,1.27a1,1,0,0,0,.78-.31,1.41,1.41,0,0,0,.27-1v-2.6h1.08v2.64a2.19,2.19,0,0,1-.56,1.6,2.16,2.16,0,0,1-1.58.56A2.14,2.14,0,0,1,240.74,167.15Z" style="fill:#263238"></path><path d="M300.53,165.67l1.49-1.5a1.72,1.72,0,0,0,0-2.43l-.48-.48a1.72,1.72,0,0,0-2.43,0l-1.5,1.49a1.73,1.73,0,0,0-.12,2.28l-.91.92a1.71,1.71,0,0,0-2.28.12l-1.5,1.49a1.73,1.73,0,0,0,0,2.44l.48.48a1.73,1.73,0,0,0,2.44,0l1.49-1.5a1.7,1.7,0,0,0,.12-2.27l.92-.92A1.73,1.73,0,0,0,300.53,165.67Zm-2.16-2.16,1.5-1.49a.65.65,0,0,1,.91,0l.48.48a.65.65,0,0,1,0,.91l-1.49,1.5a.66.66,0,0,1-.75.11l.23-.23-.76-.76-.23.23A.66.66,0,0,1,298.37,163.51Zm-1.92,4.71-1.49,1.5a.66.66,0,0,1-.92,0l-.48-.48a.66.66,0,0,1,0-.92l1.5-1.49a.64.64,0,0,1,.74-.11l-.29.29.76.76.29-.29A.64.64,0,0,1,296.45,168.22Z" style="fill:#263238"></path><rect x="276.93" y="161.34" width="7.58" height="1.12" style="fill:#263238"></rect><rect x="274.68" y="163.99" width="12.07" height="1.12" style="fill:#263238"></rect><rect x="276.93" y="166.63" width="7.58" height="1.12" style="fill:#263238"></rect><rect x="275.8" y="169.27" width="9.83" height="1.12" style="fill:#263238"></rect><path d="M256.52,161.9a1.09,1.09,0,1,1-1.09-1.08A1.09,1.09,0,0,1,256.52,161.9Z" style="fill:#263238"></path><path d="M256.52,165.87a1.09,1.09,0,1,1-1.09-1.09A1.08,1.08,0,0,1,256.52,165.87Z" style="fill:#263238"></path><path d="M256.52,169.83a1.09,1.09,0,1,1-1.09-1.08A1.09,1.09,0,0,1,256.52,169.83Z" style="fill:#263238"></path><rect x="258.8" y="161.34" width="7.58" height="1.12" style="fill:#263238"></rect><rect x="258.8" y="165.31" width="7.58" height="1.12" style="fill:#263238"></rect><rect x="258.8" y="169.27" width="7.58" height="1.12" style="fill:#263238"></rect><polygon points="191.15 165.91 189.05 168 186.95 165.91 191.15 165.91" style="fill:#263238"></polygon><rect x="240.18" y="168.33" width="4.27" height="0.84" style="fill:#263238"></rect><path d="M156.86,184.71H199.6a1.27,1.27,0,0,0,0-2.53H156.86a1.27,1.27,0,0,0,0,2.53Z" style="fill:#263238"></path><path d="M206.27,184.71H240a1.27,1.27,0,0,0,0-2.53H206.27a1.27,1.27,0,0,0,0,2.53Z" style="fill:#263238"></path><path d="M246.85,184.71h29.27a1.27,1.27,0,0,0,0-2.53H246.85a1.27,1.27,0,0,0,0,2.53Z" style="fill:#263238"></path><path d="M282.64,184.71H311.9a1.27,1.27,0,0,0,0-2.53H282.64a1.27,1.27,0,0,0,0,2.53Z" style="fill:#263238"></path><path d="M156.86,197.09h30.95a1.26,1.26,0,0,0,0-2.52H156.86a1.26,1.26,0,0,0,0,2.52Z" style="fill:#263238"></path><path d="M194.48,197.09h34.67a1.26,1.26,0,0,0,0-2.52H194.48a1.26,1.26,0,0,0,0,2.52Z" style="fill:#263238"></path><path d="M236,197.09h28.45a1.26,1.26,0,0,0,0-2.52H236a1.26,1.26,0,0,0,0,2.52Z" style="fill:#263238"></path><path d="M271,197.09H311.9a1.26,1.26,0,0,0,0-2.52H271a1.26,1.26,0,0,0,0,2.52Z" style="fill:#263238"></path><path d="M156.86,209.48h39.4a1.27,1.27,0,0,0,0-2.53h-39.4a1.27,1.27,0,0,0,0,2.53Z" style="fill:#263238"></path><path d="M202.93,209.48H240a1.27,1.27,0,0,0,0-2.53h-37.1a1.27,1.27,0,0,0,0,2.53Z" style="fill:#263238"></path><path d="M246.85,209.48h42a1.27,1.27,0,0,0,0-2.53h-42a1.27,1.27,0,0,0,0,2.53Z" style="fill:#263238"></path><path d="M295.39,209.48H311.9a1.27,1.27,0,0,0,0-2.53H295.39a1.27,1.27,0,0,0,0,2.53Z" style="fill:#263238"></path><path d="M156.86,221.86h33a1.27,1.27,0,0,0,0-2.53h-33a1.27,1.27,0,0,0,0,2.53Z" style="fill:#263238"></path><path d="M196.55,221.86h32.6a1.27,1.27,0,0,0,0-2.53h-32.6a1.27,1.27,0,0,0,0,2.53Z" style="fill:#263238"></path><path d="M236,221.86h22.25a1.27,1.27,0,0,0,0-2.53H236a1.27,1.27,0,0,0,0,2.53Z" style="fill:#263238"></path><path d="M264.74,221.86H311.9a1.27,1.27,0,0,0,0-2.53H264.74a1.27,1.27,0,0,0,0,2.53Z" style="fill:#263238"></path><g style="opacity:0.30000000000000004"><path d="M156.86,184.71H199.6a1.27,1.27,0,0,0,0-2.53H156.86a1.27,1.27,0,0,0,0,2.53Z" style="fill:#fff"></path><path d="M206.27,184.71H240a1.27,1.27,0,0,0,0-2.53H206.27a1.27,1.27,0,0,0,0,2.53Z" style="fill:#fff"></path><path d="M246.85,184.71h29.27a1.27,1.27,0,0,0,0-2.53H246.85a1.27,1.27,0,0,0,0,2.53Z" style="fill:#fff"></path><path d="M282.64,184.71H311.9a1.27,1.27,0,0,0,0-2.53H282.64a1.27,1.27,0,0,0,0,2.53Z" style="fill:#fff"></path><path d="M156.86,197.09h30.95a1.26,1.26,0,0,0,0-2.52H156.86a1.26,1.26,0,0,0,0,2.52Z" style="fill:#fff"></path><path d="M194.48,197.09h34.67a1.26,1.26,0,0,0,0-2.52H194.48a1.26,1.26,0,0,0,0,2.52Z" style="fill:#fff"></path><path d="M236,197.09h28.45a1.26,1.26,0,0,0,0-2.52H236a1.26,1.26,0,0,0,0,2.52Z" style="fill:#fff"></path><path d="M271,197.09H311.9a1.26,1.26,0,0,0,0-2.52H271a1.26,1.26,0,0,0,0,2.52Z" style="fill:#fff"></path><path d="M156.86,209.48h39.4a1.27,1.27,0,0,0,0-2.53h-39.4a1.27,1.27,0,0,0,0,2.53Z" style="fill:#fff"></path><path d="M202.93,209.48H240a1.27,1.27,0,0,0,0-2.53h-37.1a1.27,1.27,0,0,0,0,2.53Z" style="fill:#fff"></path><path d="M246.85,209.48h42a1.27,1.27,0,0,0,0-2.53h-42a1.27,1.27,0,0,0,0,2.53Z" style="fill:#fff"></path><path d="M295.39,209.48H311.9a1.27,1.27,0,0,0,0-2.53H295.39a1.27,1.27,0,0,0,0,2.53Z" style="fill:#fff"></path><path d="M156.86,221.86h33a1.27,1.27,0,0,0,0-2.53h-33a1.27,1.27,0,0,0,0,2.53Z" style="fill:#fff"></path><path d="M196.55,221.86h32.6a1.27,1.27,0,0,0,0-2.53h-32.6a1.27,1.27,0,0,0,0,2.53Z" style="fill:#fff"></path><path d="M236,221.86h22.25a1.27,1.27,0,0,0,0-2.53H236a1.27,1.27,0,0,0,0,2.53Z" style="fill:#fff"></path><path d="M264.74,221.86H311.9a1.27,1.27,0,0,0,0-2.53H264.74a1.27,1.27,0,0,0,0,2.53Z" style="fill:#fff"></path></g><rect x="143.68" y="193.56" width="60.82" height="57.46" rx="5.2" style="fill:#407BFF"></rect><rect x="141.43" y="193.56" width="60.82" height="57.46" rx="5.2" style="fill:#407BFF"></rect><rect x="141.43" y="193.56" width="60.82" height="57.46" rx="5.2" style="fill:#fff;opacity:0.6000000000000001"></rect><path d="M150.84,209.48h42a1.27,1.27,0,0,0,0-2.53h-42a1.27,1.27,0,0,0,0,2.53Z" style="fill:#263238"></path><path d="M150.84,234.57h42a1.26,1.26,0,0,0,0-2.52h-42a1.26,1.26,0,0,0,0,2.52Z" style="fill:#263238"></path><path d="M150.84,221.86h42a1.27,1.27,0,0,0,0-2.53h-42a1.27,1.27,0,0,0,0,2.53Z" style="fill:#263238"></path><g style="opacity:0.1"><path d="M150.84,209.48h42a1.27,1.27,0,0,0,0-2.53h-42a1.27,1.27,0,0,0,0,2.53Z" style="fill:#fff"></path><path d="M150.84,234.57h42a1.26,1.26,0,0,0,0-2.52h-42a1.26,1.26,0,0,0,0,2.52Z" style="fill:#fff"></path><path d="M150.84,221.86h42a1.27,1.27,0,0,0,0-2.53h-42a1.27,1.27,0,0,0,0,2.53Z" style="fill:#fff"></path></g><rect x="183.68" y="239.88" width="9.18" height="6.18" rx="1.42" style="fill:#407BFF"></rect><rect x="171.85" y="239.88" width="9.18" height="6.18" rx="1.42" style="fill:#fff;opacity:0.8"></rect></g><g id="freepik--Plant--inject-52"><path d="M154.52,381.49s-3.13-47.37,3.44-58.62c0,0,7.31,9.73,4.53,58.62Z" style="fill:#407BFF"></path><path d="M162.49,381.49S164,338.88,184.92,332a116.35,116.35,0,0,0-13.34,49.54Z" style="fill:#407BFF"></path><path d="M155.22,381.49s-1.48-42.61-22.43-49.54a116.44,116.44,0,0,1,13.35,49.54Z" style="fill:#407BFF"></path><g style="opacity:0.30000000000000004"><path d="M154.52,381.49s-3.13-47.37,3.44-58.62c0,0,7.31,9.73,4.53,58.62Z" style="fill:#fff"></path><path d="M162.49,381.49S164,338.88,184.92,332a116.35,116.35,0,0,0-13.34,49.54Z" style="fill:#fff"></path><path d="M155.22,381.49s-1.48-42.61-22.43-49.54a116.44,116.44,0,0,1,13.35,49.54Z" style="fill:#fff"></path></g><path d="M141.86,383s-4.87-34.13-20.8-43.61c0,0,27.63-2.28,27,43.61Z" style="fill:#407BFF"></path><path d="M150.27,381.86s5.8-36.79-12.52-54.23c0,0,25.89,5.69,19.06,55.37Z" style="fill:#407BFF"></path><path d="M175.36,383s4.87-34.13,20.8-43.61c0,0-27.63-2.28-27,43.61Z" style="fill:#407BFF"></path><path d="M167,381.86s-5.8-36.79,12.51-54.23c0,0-25.88,5.69-19.06,55.37Z" style="fill:#407BFF"></path><g style="opacity:0.5"><path d="M141.86,383s-4.87-34.13-20.8-43.61c0,0,27.63-2.28,27,43.61Z" style="fill:#fff"></path><path d="M150.27,381.86s5.8-36.79-12.52-54.23c0,0,25.89,5.69,19.06,55.37Z" style="fill:#fff"></path><path d="M175.36,383s4.87-34.13,20.8-43.61c0,0-27.63-2.28-27,43.61Z" style="fill:#fff"></path><path d="M167,381.86s-5.8-36.79,12.51-54.23c0,0-25.88,5.69-19.06,55.37Z" style="fill:#fff"></path></g><polygon points="175.94 409.32 141.49 409.32 134.82 372.64 182.62 372.64 175.94 409.32" style="fill:#263238"></polygon></g><g id="freepik--Mug--inject-52"><path d="M237.87,257.25H225.26a1.36,1.36,0,0,0-1.34,1.61l0,.11a3.53,3.53,0,0,0-1.9.06c-2.28.69-2.34,2.71-1.66,5s1.85,3.94,4.12,3.26a4,4,0,0,0,1-.49,6.26,6.26,0,0,0,2.12,2.67v1.67h7.82v-1.67a6.36,6.36,0,0,0,2.52-4l1.22-6.62A1.37,1.37,0,0,0,237.87,257.25Zm-13.69,8.58c-1.49.45-2.26-.64-2.71-2.14s-.4-2.83,1.09-3.27a2.2,2.2,0,0,1,1.67.12l.88,4.78A2.32,2.32,0,0,1,224.18,265.83Z" style="fill:#263238"></path><path d="M237.87,257.25H225.26a1.36,1.36,0,0,0-1.34,1.61l0,.11a3.53,3.53,0,0,0-1.9.06c-2.28.69-2.34,2.71-1.66,5s1.85,3.94,4.12,3.26a4,4,0,0,0,1-.49,6.26,6.26,0,0,0,2.12,2.67v1.67h7.82v-1.67a6.36,6.36,0,0,0,2.52-4l1.22-6.62A1.37,1.37,0,0,0,237.87,257.25Zm-13.69,8.58c-1.49.45-2.26-.64-2.71-2.14s-.4-2.83,1.09-3.27a2.2,2.2,0,0,1,1.67.12l.88,4.78A2.32,2.32,0,0,1,224.18,265.83Z" style="fill:#fff;opacity:0.7000000000000001"></path><path d="M224.18,265.83c-1.49.45-2.26-.64-2.71-2.14s-.4-2.83,1.09-3.27a2.2,2.2,0,0,1,1.67.12l.88,4.78A2.32,2.32,0,0,1,224.18,265.83Z" style="fill:#fff;opacity:0.5"></path><path d="M235.81,273.09h-8.49a3.1,3.1,0,0,1-1.48-.38L223,271.13a.57.57,0,0,1,.27-1.08h16.65a.57.57,0,0,1,.28,1.08l-2.87,1.58A3.11,3.11,0,0,1,235.81,273.09Z" style="fill:#263238"></path><path d="M235.81,273.09h-8.49a3.1,3.1,0,0,1-1.48-.38L223,271.13a.57.57,0,0,1,.27-1.08h16.65a.57.57,0,0,1,.28,1.08l-2.87,1.58A3.11,3.11,0,0,1,235.81,273.09Z" style="fill:#fff;opacity:0.6000000000000001"></path></g><g id="freepik--Character--inject-52"><polygon points="298.82 408.74 294.02 408.74 299.62 334.24 306.01 334.24 298.82 408.74" style="fill:#407BFF"></polygon><polygon points="298.82 408.74 294.02 408.74 299.62 334.24 306.01 334.24 298.82 408.74" style="fill:#fff;opacity:0.7000000000000001"></polygon><g style="opacity:0.4"><polygon points="338.17 408.74 333.37 408.74 338.97 334.24 345.36 334.24 338.17 408.74" style="fill:#407BFF"></polygon></g><polygon points="385.65 408.74 390.44 408.74 384.85 334.24 378.45 334.24 385.65 408.74" style="fill:#407BFF"></polygon><g style="opacity:0.4"><polygon points="385.65 408.74 390.44 408.74 384.85 334.24 378.45 334.24 385.65 408.74" style="fill:#fff"></polygon></g><rect x="303.18" y="334.24" width="78.72" height="6.96" style="fill:#407BFF"></rect><rect x="303.18" y="334.24" width="78.72" height="6.96" style="fill:#fff;opacity:0.5"></rect><polygon points="346.3 408.74 351.09 408.74 345.5 334.24 339.1 334.24 346.3 408.74" style="fill:#407BFF"></polygon><polygon points="346.3 408.74 351.09 408.74 345.5 334.24 339.1 334.24 346.3 408.74" style="fill:#fff;opacity:0.7000000000000001"></polygon><path d="M386.68,247.3H373.63a17.76,17.76,0,0,0-16,10.11l-36.73,76.83H383a8.32,8.32,0,0,0,8.27-7.4l7.31-66.31A11.92,11.92,0,0,0,386.68,247.3Z" style="fill:#263238"></path><path d="M386.68,247.3H373.63a17.76,17.76,0,0,0-16,10.11l-36.73,76.83H383a8.32,8.32,0,0,0,8.27-7.4l7.31-66.31A11.92,11.92,0,0,0,386.68,247.3Z" style="fill:#fff;opacity:0.4"></path><path d="M378.72,247.3h-13a17.78,17.78,0,0,0-16,10.11l-36.72,76.83h60.87a9.67,9.67,0,0,0,9.61-8.61l7.18-65.1A11.92,11.92,0,0,0,378.72,247.3Z" style="fill:#263238"></path><path d="M378.72,247.3h-13a17.78,17.78,0,0,0-16,10.11l-36.72,76.83h60.87a9.67,9.67,0,0,0,9.61-8.61l7.18-65.1A11.92,11.92,0,0,0,378.72,247.3Z" style="fill:#fff;opacity:0.30000000000000004"></path><path d="M352.33,334.24h-51a8.51,8.51,0,0,1-8.51-8.52h0a8.51,8.51,0,0,1,8.51-8.51h51Z" style="fill:#263238"></path><path d="M352.33,334.24h-51a8.51,8.51,0,0,1-8.51-8.52h0a8.51,8.51,0,0,1,8.51-8.51h51Z" style="fill:#fff;opacity:0.30000000000000004"></path><path d="M383.52,334.24h-33a8.15,8.15,0,0,1-8.15-8.15v-.73a8.15,8.15,0,0,1,8.15-8.15h33a8.51,8.51,0,0,1,8.52,8.51h0A8.51,8.51,0,0,1,383.52,334.24Z" style="fill:#263238"></path><path d="M383.52,334.24h-33a8.15,8.15,0,0,1-8.15-8.15v-.73a8.15,8.15,0,0,1,8.15-8.15h33a8.51,8.51,0,0,1,8.52,8.51h0A8.51,8.51,0,0,1,383.52,334.24Z" style="fill:#fff;opacity:0.4"></path><path d="M335.23,202.37s-4.39,13.77,0,9.15c0,0-3.2,15.32,2.72,5.17,0,0-2.81,13.66,1.8,13.78s17.93-.5,17.93-.5l3.51-6.11,1.38-3.61s6.8,1,5-5.61a139.61,139.61,0,0,0-6.09-15.93l-4.51-5.51L338,196.73Z" style="fill:#263238"></path><path d="M335.23,202.37s-4.39,13.77,0,9.15c0,0-3.2,15.32,2.72,5.17,0,0-2.81,13.66,1.8,13.78s17.93-.5,17.93-.5l3.51-6.11,1.38-3.61s6.8,1,5-5.61a139.61,139.61,0,0,0-6.09-15.93l-4.51-5.51L338,196.73Z" style="opacity:0.6000000000000001"></path><path d="M325.09,239.8s.59,11.61-5.87,17.13c-5.87,5-15.12,8.93-15.12,8.93l-7.86-2.32a2,2,0,0,0-2.09.6l-3.8,4.33a2,2,0,0,0,.26,2.91h0a2,2,0,0,0,1.5.42l4.16-.5a34,34,0,0,0,5,.61,27.31,27.31,0,0,0,3.82-1.05s14.29-1.23,20.68-7.3,8.57-18.66,8.57-18.66Z" style="fill:#ebb376"></path><path d="M333,218.8c-5.11-.77-8.69,11.89-9.58,23.85l12,4.3S342.53,220.25,333,218.8Z" style="fill:#407BFF"></path><path d="M335.39,247s3.57-13.38,2.27-21.71l-7.48-2.78s-5.45,11.73-2.64,39.14c3.83-4.93,5.77-12,6.48-15.15Z" style="opacity:0.1"></path><polygon points="282.93 376.38 283.81 403.49 289.88 403.49 292.72 375.89 282.93 376.38" style="fill:#ebb376"></polygon><path d="M283.72,400.71l6.92,0a.63.63,0,0,1,.62.5l1.43,6.51a1.06,1.06,0,0,1-.8,1.28.91.91,0,0,1-.23,0c-2.88-.06-5.44-.22-9-.23-4.23,0-3.16.5-8.14.56-3,0-3.54-3.38-2.27-3.54,5.83-.72,7.51-2.49,9.76-4.57A2.62,2.62,0,0,1,283.72,400.71Z" style="fill:#263238"></path><polygon points="290.5 397.54 291.18 390.9 283.4 390.9 283.62 397.54 290.5 397.54" style="fill:#263238;opacity:0.1"></polygon><path d="M354,274.47s18.91,43,.75,43H302.31s-2.27,11.43-10.44,74.24H283.1s-4.18-73.56.67-84.54c3.8-8.59,30.85-14.74,42.38-17a7.36,7.36,0,0,0,5.89-6.24l2.56-10.56Z" style="fill:#263238"></path><polygon points="281.43 390.17 282.13 394.94 292.55 394.94 293.51 390.17 281.43 390.17" style="fill:#263238"></polygon><polygon points="281.43 390.17 282.13 394.94 292.55 394.94 293.51 390.17 281.43 390.17" style="fill:#fff;opacity:0.30000000000000004"></polygon><path d="M317.41,310l33.16-16.35v-9l-5-9.94S345,284.84,338,288.44s-33.77,5.23-40.09,13.71c-5.06,6.79-.85,29,1,37.49,2.56-17.89,3.42-22.21,3.42-22.21H310l.65-2.57Z" style="opacity:0.4"></path><polygon points="307.23 376.39 309.65 403.14 315.46 403.13 318.19 375.9 307.23 376.39" style="fill:#ebb376"></polygon><path d="M309.07,400.71l6.92,0a.65.65,0,0,1,.63.5l1.43,6.51a1.07,1.07,0,0,1-.81,1.28.85.85,0,0,1-.23,0c-2.88-.06-5.44-.22-9-.23-4.23,0-3.16.5-8.14.56-3,0-3.54-3.38-2.27-3.54,5.83-.72,7.51-2.49,9.76-4.57A2.62,2.62,0,0,1,309.07,400.71Z" style="fill:#263238"></path><polygon points="316.02 397.54 316.69 390.9 308.54 390.9 309.14 397.54 316.02 397.54" style="fill:#263238;opacity:0.1"></polygon><path d="M367.61,275.21s1.48,4.3,3.4,10.15c4.12,12.49,6.36,32.07-6,32.07H320.8s4.83,4.66-3.7,74.24h-8.77s-11.66-75.81-6.82-86.78c3.74-8.45,26.38-12.31,36.59-13.64a6.23,6.23,0,0,0,5.4-5.66l1-12.26Z" style="fill:#263238"></path><polygon points="306.75 390.17 307.76 394.94 317.87 394.94 318.84 390.17 306.75 390.17" style="fill:#263238"></polygon><polygon points="306.75 390.17 307.76 394.94 317.87 394.94 318.84 390.17 306.75 390.17" style="fill:#fff;opacity:0.30000000000000004"></polygon><path d="M333.13,278a171.12,171.12,0,0,0-1-19.2c-1.29-12.31-3.8-27.57-2.22-36.32a4.86,4.86,0,0,1,4.88-4h33.39a3.58,3.58,0,0,1,3.5,4.07c-1.65,9.37-5.84,34.15-2.58,56.19C369.14,278.72,343.53,280.76,333.13,278Z" style="fill:#407BFF"></path><path d="M368.62,263.06c-.1-3.07-.1-6.11,0-9.06l-5.38-.49-9.8,9.72-8.54,2.38-4.35,4.06s19.92-.54,25.54-4.52A27.25,27.25,0,0,0,368.62,263.06Z" style="opacity:0.1"></path><path d="M353.28,201.19c-.52,4.83.8,15.11,4.4,18,0,0-1.33,6.29-12.13,7.28-6.58-2.9-4.13-8.25-4.13-8.25,5.18-1.75,5.7-4.9,4.51-8.51Z" style="fill:#ebb376"></path><path d="M342.87,217.38s-2.9,7.45,4.48,7.48c8.48,0,9.23-7.48,9.23-7.48l2.28,1.08s-.38,14.91-12.88,8.65c0,0-4.82,3.36-5.47-2.25s.46-6.4.46-6.4Z" style="fill:#407BFF"></path><path d="M342.87,217.38s-2.9,7.45,4.48,7.48c8.48,0,9.23-7.48,9.23-7.48l2.28,1.08s-.38,14.91-12.88,8.65c0,0-4.82,3.36-5.47-2.25s.46-6.4.46-6.4Z" style="fill:#fff;opacity:0.30000000000000004"></path><path d="M345.7,215.33c1.92,0,5.73-.84,7.17-7,2-8.41-6.94,1.4-6.94,1.4C346.62,211.8,346.73,213.73,345.7,215.33Z" style="opacity:0.1"></path><path d="M356.4,192.11c.73,7.95,1.21,11.3-2.15,15.95-5,7-15,6.16-18.05-1.41-2.78-6.82-3.5-18.66,3.72-23a10.87,10.87,0,0,1,14.94,3.68A10.74,10.74,0,0,1,356.4,192.11Z" style="fill:#ebb376"></path><path d="M339.67,199.63a17.44,17.44,0,0,1-1.55,4.49,2.8,2.8,0,0,0,2.35,0Z" style="fill:#d58745"></path><path d="M344.61,194.62a.32.32,0,0,0,.13-.1.31.31,0,0,0-.05-.44h0a3.69,3.69,0,0,0-3.34-.68.32.32,0,0,0,.2.6,3.08,3.08,0,0,1,2.76.59A.34.34,0,0,0,344.61,194.62Z" style="fill:#2e353a"></path><path d="M333.58,196.3a.44.44,0,0,1-.16-.06.31.31,0,0,1-.08-.43h0a3.71,3.71,0,0,1,3-1.69.32.32,0,0,1,.31.32.31.31,0,0,1-.31.31,3.13,3.13,0,0,0-2.44,1.42A.35.35,0,0,1,333.58,196.3Z" style="fill:#2e353a"></path><path d="M344,197.77c.12.63-.13,1.21-.55,1.29s-.84-.38-.95-1,.13-1.21.54-1.28S343.87,197.12,344,197.77Z" style="fill:#2e353a"></path><path d="M336.77,199.06c.11.64-.13,1.21-.55,1.29s-.84-.38-1-1,.13-1.21.54-1.29S336.66,198.42,336.77,199.06Z" style="fill:#2e353a"></path><path d="M336,198l-1.61-.16S335.39,198.93,336,198Z" style="fill:#2e353a"></path><path d="M343.21,196.75l-1.61-.17S342.6,197.64,343.21,196.75Z" style="fill:#2e353a"></path><path d="M350.6,188.59s-17,7.71-11.78,0c0,0-9.79,6.6-7.05,1.43s5-5.68,5-5.68-2.58.88-2.36-1.11,5.76-5,10.41-3.37c0,0-1.45-2.24.1-3.12s4.66,3.74,4.66,3.74,7.32-1.62,8.09.13-1.62,1.49-1.62,1.49,8.12,2.62,7.5,4.62-2.05.74-2.05.74,6.68,7.87,5.3,10.61-3.87-.48-3.87-.48,6.75,10.25,3.87,12.53-5.37-4-5.37-4,3.89,9.73,1.13,10.47-3.71-6.51-3.71-6.51,1,5.9-1.18,5.89-3.11-18.47-3.11-18.47S352.48,204.79,350.6,188.59Z" style="fill:#263238"></path><path d="M359.22,198.05A5.82,5.82,0,0,1,357,201.9c-1.65,1.22-3.2-.07-3.35-2-.14-1.73.54-4.46,2.49-4.92a2.65,2.65,0,0,1,3.11,2.05A2.55,2.55,0,0,1,359.22,198.05Z" style="fill:#ebb376"></path><path d="M342.67,207.38a5.47,5.47,0,0,1-.7.16.14.14,0,0,1-.16-.12h0a.14.14,0,0,1,.12-.16,3.88,3.88,0,0,0,2.88-2,.14.14,0,0,1,.19-.07.14.14,0,0,1,.07.19A4,4,0,0,1,342.67,207.38Z" style="fill:#263238"></path><path d="M364.69,227.44S362,241,360,244.7l6,.75,2.57-16.81Z" style="opacity:0.1"></path><path d="M364.27,236.61s1.5,13.76-5.42,18S337,264.8,337,264.8L328,262.88a1.2,1.2,0,0,0-1.24.5l-3.93,5.86a1.19,1.19,0,0,0,.05,1.4h0a1.2,1.2,0,0,0,1.06.45l5.51-.57a25,25,0,0,0,3.77.64,32,32,0,0,0,4.76-1.11s21-2,27.76-8.42S374,242,374,242Z" style="fill:#ebb376"></path><path d="M369.39,218.75c-6.45-.77-5.49,13.74-6.82,23.9l12,2.8S379,219.9,369.39,218.75Z" style="fill:#407BFF"></path></g><g id="freepik--Device--inject-52"><path d="M292.25,273a1.39,1.39,0,0,1,0-2.77h37.63a1.39,1.39,0,1,1,0,2.77Z" style="fill:#263238"></path><path d="M295.44,270.62l-5-35.65a2.82,2.82,0,0,0-2.71-2.38h-4.8V273H293.4A2,2,0,0,0,295.44,270.62Z" style="fill:#263238"></path><g style="opacity:0.1"><path d="M292.25,273a1.39,1.39,0,0,1,0-2.77h37.63a1.39,1.39,0,1,1,0,2.77Z" style="fill:#fff"></path><path d="M295.44,270.62l-5-35.65a2.82,2.82,0,0,0-2.71-2.38h-4.8V273H293.4A2,2,0,0,0,295.44,270.62Z" style="fill:#fff"></path></g><path d="M291.33,273H248.78a2.81,2.81,0,0,1-2.71-2.37l-5-35.65a2,2,0,0,1,2-2.38h42.55a2.83,2.83,0,0,1,2.71,2.38l5,35.65A2,2,0,0,1,291.33,273Z" style="fill:#263238"></path><path d="M291.33,273H248.78a2.81,2.81,0,0,1-2.71-2.37l-5-35.65a2,2,0,0,1,2-2.38h42.55a2.83,2.83,0,0,1,2.71,2.38l5,35.65A2,2,0,0,1,291.33,273Z" style="fill:#fff;opacity:0.7000000000000001"></path><path d="M269.29,251.82a1.84,1.84,0,0,1-1.86,2.17,2.59,2.59,0,0,1-2.48-2.17,1.84,1.84,0,0,1,1.87-2.17A2.57,2.57,0,0,1,269.29,251.82Z" style="fill:#fff;opacity:0.7000000000000001"></path></g><g id="freepik--Desk--inject-52"><polygon points="186.02 409.87 181.17 409.87 179.05 281.61 188.14 281.61 186.02 409.87" style="fill:#407BFF"></polygon><polygon points="186.02 409.87 181.17 409.87 179.05 281.61 188.14 281.61 186.02 409.87" style="fill:#fff;opacity:0.7000000000000001"></polygon><polygon points="239.51 409.87 234.66 409.87 232.54 281.61 241.63 281.61 239.51 409.87" style="fill:#407BFF"></polygon><polygon points="239.51 409.87 234.66 409.87 232.54 281.61 241.63 281.61 239.51 409.87" style="fill:#fff;opacity:0.4"></polygon><rect x="183.59" y="279.46" width="91.45" height="10.03" style="fill:#407BFF"></rect><rect x="183.59" y="279.46" width="91.45" height="10.03" style="fill:#fff;opacity:0.30000000000000004"></rect><rect x="275.05" y="279.46" width="53.63" height="10.03" style="fill:#407BFF"></rect><rect x="275.05" y="279.46" width="53.63" height="10.03" style="fill:#fff;opacity:0.5"></rect><polygon points="330.96 409.87 326.12 409.87 323.99 281.61 333.09 281.61 330.96 409.87" style="fill:#407BFF"></polygon><polygon points="330.96 409.87 326.12 409.87 323.99 281.61 333.09 281.61 330.96 409.87" style="fill:#fff;opacity:0.4"></polygon><rect x="261.86" y="273.01" width="76.77" height="8.6" rx="2.65" style="fill:#263238"></rect><rect x="261.86" y="273.01" width="76.77" height="8.6" rx="2.65" style="fill:#fff;opacity:0.4"></rect><rect x="171.51" y="273.01" width="102.3" height="8.6" rx="2.65" style="fill:#263238"></rect><rect x="171.51" y="273.01" width="102.3" height="8.6" rx="2.65" style="fill:#fff;opacity:0.30000000000000004"></rect><polygon points="277.47 409.87 272.62 409.87 270.5 281.61 279.59 281.61 277.47 409.87" style="fill:#407BFF"></polygon><polygon points="277.47 409.87 272.62 409.87 270.5 281.61 279.59 281.61 277.47 409.87" style="fill:#fff;opacity:0.7000000000000001"></polygon></g></svg>